<svg xmlns="http://www.w3.org/2000/svg" xmlns:xlink="http://www.w3.org/1999/xlink" width="500" zoomAndPan="magnify" viewBox="0 0 375 374.999991" height="500" preserveAspectRatio="xMidYMid meet" version="1.0"><defs><clipPath id="b2a243a9bc"><path d="M 37.5 37.5 L 337.5 37.5 L 337.5 337 L 37.5 337 Z M 37.5 37.5 " clip-rule="nonzero"/></clipPath><clipPath id="6947e3fc18"><path d="M 120 93 L 258 93 L 258 337.5 L 120 337.5 Z M 120 93 " clip-rule="nonzero"/></clipPath></defs><g clip-path="url(#b2a243a9bc)"><path fill="#0866ff" d="M 337.539062 187.527344 C 337.539062 104.664062 270.378906 37.5 187.527344 37.5 C 104.675781 37.5 37.5 104.664062 37.5 187.527344 C 37.5 257.882812 85.933594 316.925781 151.277344 333.136719 L 151.277344 233.375 L 120.335938 233.375 L 120.335938 187.527344 L 151.277344 187.527344 L 151.277344 167.773438 C 151.277344 116.714844 174.386719 93.042969 224.515625 93.042969 C 234.023438 93.042969 250.421875 94.902344 257.128906 96.773438 L 257.128906 138.324219 C 253.585938 137.949219 247.433594 137.761719 239.796875 137.761719 C 215.199219 137.761719 205.691406 147.078125 205.691406 171.300781 L 205.691406 187.511719 L 254.691406 187.511719 L 246.273438 233.363281 L 205.691406 233.363281 L 205.691406 336.4375 C 279.976562 327.46875 337.539062 264.210938 337.539062 187.511719 Z M 337.539062 187.527344 " fill-opacity="1" fill-rule="nonzero"/></g><g clip-path="url(#6947e3fc18)"><path fill="#ffffff" d="M 246.289062 233.363281 L 254.703125 187.511719 L 205.703125 187.511719 L 205.703125 171.300781 C 205.703125 147.078125 215.210938 137.761719 239.8125 137.761719 C 247.445312 137.761719 253.601562 137.949219 257.140625 138.324219 L 257.140625 96.773438 C 250.433594 94.914062 234.035156 93.042969 224.527344 93.042969 C 174.398438 93.042969 151.292969 116.714844 151.292969 167.773438 L 151.292969 187.527344 L 120.351562 187.527344 L 120.351562 233.375 L 151.292969 233.375 L 151.292969 333.136719 C 162.898438 336.019531 175.03125 337.554688 187.539062 337.554688 C 193.695312 337.554688 199.753906 337.175781 205.71875 336.449219 L 205.71875 233.375 L 246.300781 233.375 Z M 246.289062 233.363281 " fill-opacity="1" fill-rule="nonzero"/></g></svg>