<svg xmlns="http://www.w3.org/2000/svg" xmlns:xlink="http://www.w3.org/1999/xlink" width="500" zoomAndPan="magnify" viewBox="0 0 375 374.999991" height="500" preserveAspectRatio="xMidYMid meet" version="1.0"><defs><clipPath id="cbfcc3a330"><path d="M 37.5 37.5 L 333 37.5 L 333 333 L 37.5 333 Z M 37.5 37.5 " clip-rule="nonzero"/></clipPath></defs><g clip-path="url(#cbfcc3a330)"><path fill="#f1582c" d="M 185.203125 37.460938 C 266.800781 37.460938 332.941406 103.601562 332.941406 185.203125 C 332.941406 266.800781 266.800781 332.941406 185.203125 332.941406 C 103.601562 332.941406 37.460938 266.800781 37.460938 185.203125 C 37.460938 103.601562 103.601562 37.460938 185.203125 37.460938 Z M 185.085938 100.890625 C 207.566406 100.890625 209.574219 132.859375 211.839844 142.582031 L 158.953125 142.582031 C 158.953125 124.070312 167.351562 100.890625 185.085938 100.890625 Z M 203.914062 189.308594 L 208.992188 184.53125 C 202.59375 177.003906 195.574219 174.0625 186.113281 174.0625 C 170.460938 174.0625 164.050781 183.007812 164.050781 192.464844 C 164.050781 216.363281 202.078125 207.3125 202.078125 227.347656 C 202.078125 234.261719 196.28125 238.929688 185.707031 238.929688 C 176.964844 238.929688 170.859375 235.28125 166.1875 229.277344 L 160.796875 234.261719 C 167.507812 242.085938 175.539062 245.242188 185.511719 245.242188 C 199.234375 245.242188 209.605469 238.535156 209.605469 226.027344 C 209.605469 201.816406 171.578125 209.449219 171.578125 191.347656 C 171.578125 184.9375 176.152344 180.367188 186.316406 180.367188 C 193.84375 180.367188 199.542969 183.511719 203.914062 189.308594 Z M 148.378906 142.582031 L 109.796875 142.582031 C 102.949219 142.582031 100.28125 147.328125 101.171875 154.933594 C 101.882812 160.925781 102.4375 168.820312 102.921875 174.964844 L 104.824219 204.796875 C 104.960938 207.515625 105.3125 207.058594 105.445312 209.78125 L 108.542969 255.207031 C 108.632812 267.773438 115.488281 279.464844 127.847656 279.464844 L 241.707031 279.464844 C 263.925781 279.464844 261.683594 252.039062 263.394531 236.4375 L 269.09375 155.011719 C 269.277344 151.535156 269.96875 149.824219 268.304688 146.464844 C 267.140625 144.09375 264.375 142.582031 260.996094 142.582031 L 221.792969 142.582031 C 221.792969 121.429688 209.800781 90.9375 186.949219 90.9375 L 181.976562 90.9375 C 170.714844 90.9375 160.972656 100.796875 157.078125 108.351562 C 151.824219 118.566406 148.378906 130.101562 148.378906 142.582031 Z M 148.378906 142.582031 " fill-opacity="1" fill-rule="evenodd"/></g></svg>