<svg xmlns="http://www.w3.org/2000/svg" xmlns:xlink="http://www.w3.org/1999/xlink" width="500" zoomAndPan="magnify" viewBox="0 0 375 374.999991" height="500" preserveAspectRatio="xMidYMid meet" version="1.0"><defs><clipPath id="5d17fc800c"><path d="M 46.226562 37.5 L 328.976562 37.5 L 328.976562 337.5 L 46.226562 337.5 Z M 46.226562 37.5 " clip-rule="nonzero"/></clipPath></defs><g clip-path="url(#5d17fc800c)"><path fill="#000000" d="M 328.949219 250.589844 L 323.558594 142.414062 C 322.957031 130.355469 317.101562 117.847656 307.496094 108.105469 C 294.96875 95.402344 278.613281 91.675781 267.097656 90.789062 C 266.976562 90.777344 266.84375 90.769531 266.730469 90.773438 L 253.835938 90.804688 L 244.789062 90.8125 C 242.597656 61.191406 217.78125 37.761719 187.589844 37.761719 C 157.367188 37.761719 132.527344 61.242188 130.386719 90.910156 L 121.347656 90.917969 L 108.449219 90.886719 C 108.332031 90.886719 108.203125 90.890625 108.082031 90.902344 C 96.566406 91.789062 80.214844 95.511719 67.6875 108.21875 C 58.078125 117.960938 52.222656 130.46875 51.625 142.527344 L 46.234375 250.703125 C 46.230469 250.777344 46.226562 250.855469 46.226562 250.933594 C 46.226562 293.742188 78.25 330.382812 120.710938 336.164062 C 120.871094 336.1875 121.03125 336.199219 121.191406 336.203125 C 142.652344 336.882812 164.410156 337.226562 185.914062 337.226562 C 186.78125 337.226562 187.648438 337.226562 188.515625 337.222656 C 210.238281 337.195312 232.269531 336.816406 253.996094 336.089844 C 254.160156 336.085938 254.320312 336.070312 254.476562 336.050781 C 296.9375 330.265625 328.953125 293.628906 328.953125 250.820312 C 328.953125 250.742188 328.953125 250.667969 328.949219 250.589844 Z M 187.589844 47.066406 C 212.644531 47.066406 233.269531 66.335938 235.433594 90.820312 L 139.742188 90.902344 C 141.867188 66.378906 162.507812 47.066406 187.589844 47.066406 Z M 244.949219 142.566406 C 244.949219 174.167969 219.21875 199.878906 187.589844 199.878906 C 155.964844 199.878906 130.234375 174.167969 130.234375 142.566406 L 130.234375 141.933594 C 130.234375 139.363281 132.320312 137.277344 134.890625 137.277344 C 137.464844 137.277344 139.546875 139.363281 139.546875 141.933594 L 139.546875 142.566406 C 139.546875 169.035156 161.101562 190.570312 187.589844 190.570312 C 214.082031 190.570312 235.632812 169.035156 235.632812 142.566406 L 235.632812 141.933594 C 235.632812 139.363281 237.71875 137.277344 240.289062 137.277344 C 242.863281 137.277344 244.949219 139.363281 244.949219 141.933594 Z M 244.949219 142.566406 " fill-opacity="1" fill-rule="nonzero"/></g></svg>